<?xml version="1.0" standalone="no"?>
<!DOCTYPE svg PUBLIC "-//W3C//DTD SVG 20010904//EN"
 "http://www.w3.org/TR/2001/REC-SVG-20010904/DTD/svg10.dtd">
<svg version="1.0" xmlns="http://www.w3.org/2000/svg"
 width="36pt" height="36pt" viewBox="0 0 261 277"
 preserveAspectRatio="xMidYMid meet">

<g transform="translate(0.000000,277.000000) scale(0.100000,-0.100000)"
fill="#000000" stroke="none">
<path d="M359 2663 c-6 -15 -9 -66 -7 -113 3 -66 9 -98 30 -143 40 -85 68
-114 230 -240 134 -104 146 -116 134 -133 -16 -22 9 -38 -255 164 -110 83
-202 149 -204 145 -3 -5 -1 -35 5 -68 23 -147 128 -282 276 -351 55 -26 81
-44 79 -54 -4 -20 -10 -18 -185 61 -84 38 -158 69 -163 69 -6 0 4 -27 22 -60
40 -75 137 -168 216 -206 70 -34 66 -31 59 -42 -3 -6 -32 -4 -73 4 -37 8 -71
13 -76 11 -9 -3 76 -85 107 -102 17 -10 18 -18 7 -126 -6 -63 -11 -284 -11
-490 l0 -375 122 -84 c67 -47 221 -158 342 -247 122 -90 222 -159 224 -154 3
8 -116 907 -122 926 -2 6 -30 19 -62 29 -164 51 -302 156 -355 271 -27 56 -50
165 -36 165 3 0 99 -55 214 -123 114 -68 240 -142 280 -165 62 -36 73 -47 77
-75 15 -91 28 -209 41 -396 32 -435 55 -636 68 -601 3 8 20 242 37 520 18 278
35 508 38 511 4 4 142 81 306 173 l299 166 -7 -57 c-16 -140 -116 -268 -268
-342 -46 -23 -107 -47 -135 -53 -29 -7 -53 -15 -53 -18 -1 -3 -29 -213 -64
-468 -34 -255 -60 -465 -56 -467 3 -2 66 42 140 98 187 141 490 357 519 370
l23 11 -5 396 c-4 264 -11 428 -21 495 -8 55 -13 100 -13 100 14 5 108 82 112
93 8 23 3 23 -68 8 -89 -18 -90 0 -3 43 35 17 88 55 118 84 51 50 119 159 107
172 -3 3 -80 -28 -170 -69 -138 -63 -165 -73 -172 -60 -5 9 -7 16 -5 17 1 1
38 20 82 41 107 53 187 129 231 220 36 73 63 182 48 196 -4 5 -104 -66 -222
-156 -169 -130 -217 -162 -227 -153 -8 6 -14 15 -14 20 0 4 66 59 148 122 158
123 201 172 234 265 29 81 28 242 -2 242 -4 0 -112 -119 -240 -265 -127 -146
-233 -265 -234 -265 -2 0 -30 16 -62 35 -75 45 -148 72 -236 87 -73 13 -86 22
-144 103 l-22 29 -28 -34 c-61 -74 -81 -90 -116 -90 -77 0 -240 -60 -315 -116
l-32 -24 -240 276 c-239 273 -241 275 -252 247z"/>
</g>
</svg>
